<?xml version="1.0" encoding="utf-8"?>
<svg width="28px" height="28px" viewBox="0 0 28 28" version="1.1" xmlns:xlink="http://www.w3.org/1999/xlink" xmlns="http://www.w3.org/2000/svg">
  <defs>
    <path d="M9.17942 22.3748C10.4416 22.3748 11.4743 21.3422 11.4743 20.08L6.88457 20.08C6.88457 21.3422 7.91725 22.3748 9.17942 22.3748ZM16.064 15.4903L16.064 9.75314C16.064 6.23053 14.1937 3.28164 10.9006 2.50139L10.9006 1.72114C10.9006 0.768777 10.1318 0 9.17942 0C8.22706 0 7.45828 0.768777 7.45828 1.72114L7.45828 2.50139C4.17664 3.28164 2.29486 6.21906 2.29486 9.75314L2.29486 15.4903L0 17.7851L0 18.9326L18.3588 18.9326L18.3588 17.7851L16.064 15.4903ZM13.7691 16.6377L4.58971 16.6377L4.58971 9.75314C4.58971 6.90752 6.32233 4.58971 9.17942 4.58971C12.0365 4.58971 13.7691 6.90752 13.7691 9.75314L13.7691 16.6377Z" transform="translate(4.589712 2.8685699)" id="path_1" />
    <clipPath id="mask_1">
      <use xlink:href="#path_1" />
    </clipPath>
  </defs>
  <g id="iconsocialnotifications_none_24px">
    <path d="M9.17942 22.3748C10.4416 22.3748 11.4743 21.3422 11.4743 20.08L6.88457 20.08C6.88457 21.3422 7.91725 22.3748 9.17942 22.3748ZM16.064 15.4903L16.064 9.75314C16.064 6.23053 14.1937 3.28164 10.9006 2.50139L10.9006 1.72114C10.9006 0.768777 10.1318 0 9.17942 0C8.22706 0 7.45828 0.768777 7.45828 1.72114L7.45828 2.50139C4.17664 3.28164 2.29486 6.21906 2.29486 9.75314L2.29486 15.4903L0 17.7851L0 18.9326L18.3588 18.9326L18.3588 17.7851L16.064 15.4903ZM13.7691 16.6377L4.58971 16.6377L4.58971 9.75314C4.58971 6.90752 6.32233 4.58971 9.17942 4.58971C12.0365 4.58971 13.7691 6.90752 13.7691 9.75314L13.7691 16.6377Z" transform="translate(4.589712 2.8685699)" id="-↳Color" fill="#000000" fill-rule="evenodd" stroke="none" />
  </g>
</svg>